<svg width="30" height="30" viewBox="0 0 30 30" fill="none" xmlns="http://www.w3.org/2000/svg">
<path d="M29.9238 8.82011C29.8535 7.22609 29.5956 6.13021 29.2263 5.18062C28.8453 4.17266 28.2591 3.27023 27.4912 2.52003C26.7408 1.75816 25.8323 1.16616 24.8358 0.791173C23.8805 0.421913 22.7902 0.164141 21.1958 0.0938601C19.5896 0.0176274 19.0797 0 15.0058 0C10.932 0 10.4221 0.0176274 8.82179 0.0879081C7.22747 0.158189 6.13138 0.41619 5.18184 0.78522C4.17345 1.16616 3.27085 1.75221 2.52051 2.52003C1.7585 3.27023 1.16661 4.17861 0.791324 5.1749C0.421993 6.13021 0.164172 7.22014 0.0938781 8.81416C0.0176307 10.4201 0 10.9299 0 15.003C0 19.076 0.0176307 19.5859 0.0879248 21.1858C0.158219 22.7799 0.416269 23.8757 0.785599 24.8253C1.16661 25.8333 1.7585 26.7357 2.52051 27.4859C3.27085 28.2478 4.17941 28.8398 5.17589 29.2148C6.13138 29.584 7.22151 29.8418 8.81607 29.9121C10.4161 29.9826 10.9263 30 15.0001 30C19.074 30 19.5839 29.9826 21.1842 29.9121C22.7785 29.8418 23.8746 29.584 24.8241 29.2148C26.8407 28.4353 28.435 26.8413 29.2146 24.8253C29.5837 23.87 29.8418 22.7799 29.9121 21.1858C29.9824 19.5859 30 19.076 30 15.003C30 10.9299 29.994 10.4201 29.9238 8.82011ZM27.2217 21.0686C27.1571 22.5338 26.911 23.3249 26.7058 23.8524C26.2016 25.1593 25.1641 26.1966 23.8569 26.7007C23.3294 26.9058 22.5323 27.1519 21.0727 27.2162C19.49 27.2868 19.0153 27.3042 15.0118 27.3042C11.0082 27.3042 10.5276 27.2868 8.9507 27.2162C7.48529 27.1519 6.69397 26.9058 6.16642 26.7007C5.51591 26.4603 4.92379 26.0794 4.44318 25.5812C3.94494 25.0948 3.56393 24.5087 3.32351 23.8583C3.11836 23.3309 2.87221 22.5338 2.80787 21.0746C2.73735 19.4922 2.71995 19.0174 2.71995 15.0147C2.71995 11.0119 2.73735 10.5313 2.80787 8.95495C2.87221 7.48981 3.11836 6.69864 3.32351 6.17119C3.56393 5.52058 3.94494 4.9288 4.44913 4.44806C4.93547 3.94991 5.52163 3.56898 6.17237 3.32883C6.69992 3.12371 7.4972 2.87762 8.95666 2.81306C10.5393 2.74278 11.0142 2.72515 15.0175 2.72515C19.027 2.72515 19.5017 2.74278 21.0786 2.81306C22.544 2.87762 23.3353 3.12371 23.8629 3.32883C24.5134 3.56898 25.1055 3.94991 25.5861 4.44806C26.0844 4.93453 26.4654 5.52058 26.7058 6.17119C26.911 6.69864 27.1571 7.49554 27.2217 8.95495C27.292 10.5373 27.3096 11.0119 27.3096 15.0147C27.3096 19.0174 27.292 19.4863 27.2217 21.0686Z" fill="black"/>
<path d="M15 7.34692C10.7749 7.34692 7.34692 10.7747 7.34692 15C7.34692 19.2253 10.7749 22.653 15 22.653C19.2253 22.653 22.653 19.2253 22.653 15C22.653 10.7747 19.2253 7.34692 15 7.34692ZM15 19.9643C12.259 19.9643 10.0356 17.7412 10.0356 15C10.0356 12.2588 12.259 10.0356 15 10.0356C17.7412 10.0356 19.9643 12.2588 19.9643 15C19.9643 17.7412 17.7412 19.9643 15 19.9643V19.9643Z" fill="black"/>
<path d="M9 6C9 6.55223 8.55226 7 7.99994 7C7.44774 7 7 6.55223 7 6C7 5.44764 7.44774 5 7.99994 5C8.55226 5 9 5.44764 9 6V6Z" fill="black"/>
</svg>
